<svg id="Capa_1" enable-background="new 0 0 512 512" height="512" viewBox="0 0 512 512" width="512" xmlns="http://www.w3.org/2000/svg"><path d="m466 194.201v183.372c0 21.62-17.514 39.147-39.118 39.147h-62.364v-30.905h58.247c6.822 0 12.353-5.535 12.353-12.362v-175.131c0-6.827-5.531-12.362-12.353-12.362h-58.247v-30.905h62.364c21.604-.001 39.118 17.526 39.118 39.146z" fill="#63e9ff"/><path d="m349.641 60.695c-1.537.22-2.724-1.276-2.209-2.742 6.628-18.844-7.185-39.68-28.118-39.68-10.8 0-20.251 5.768-25.467 14.398-.953 1.576-3.343 1.285-3.788-.502-4.607-18.48-21.272-32.169-41.13-32.169-16.481 0-30.757 9.432-37.773 23.203-.697 1.368-2.606 1.519-3.488.262-7.055-10.062-18.715-16.642-31.914-16.642-16.232 0-30.145 9.943-36.017 24.086-.591 1.423-2.462 1.695-3.462.523-5.158-6.043-12.817-9.875-21.373-9.875-19.607 0-32.571 19.314-26.751 36.968.496 1.505-.844 3.011-2.387 2.656-19.873-4.568-39.764 10.503-39.764 31.853 0 18.031 14.578 32.648 32.561 32.648s257.629 0 275.613 0c17.983 0 32.561-14.617 32.561-32.648 0-20.051-17.785-35.099-37.094-32.339z" fill="#e6e6e6"/><path d="m349.641 60.695c-1.537.22-2.724-1.276-2.209-2.742 6.628-18.844-7.185-39.68-28.118-39.68-10.8 0-20.25 5.768-25.467 14.398-.952 1.576-3.342 1.285-3.788-.502-4.607-18.48-21.272-32.169-41.13-32.169-4.839 0-9.478.833-13.809 2.33 11.183 3.463 19.41 10.931 23.437 23.365 2.107 6.505 9.617 14.105 16.088 17.238 5.937 2.875 9.488 5.871 19.918 3.067 12.832-3.45 28.552 2.646 34.282 16.842 6.895 17.082 27.009 8.649 27.009 30.193 0 18.031-14.578 32.648-32.561 32.648h30.882c17.983 0 32.561-14.617 32.561-32.648-.001-20.052-17.786-35.1-37.095-32.34z" fill="#d4d4d4"/><path d="m349.445 512h-266.155c-8.94 0-16.187-7.247-16.187-16.187v-25.428c0-8.94 7.247-16.187 16.187-16.187h266.155c8.94 0 16.187 7.247 16.187 16.187v25.428c0 8.94-7.247 16.187-16.187 16.187z" fill="#8cf2ff"/><path d="m349.758 454.197h-30.882c8.767 0 15.874 7.39 15.874 16.506v24.79c0 9.116-7.107 16.506-15.874 16.506h30.882c8.767 0 15.874-7.39 15.874-16.506v-24.79c0-9.116-7.107-16.506-15.874-16.506z" fill="#63e9ff"/><path d="m350.694 456.37h-268.653c-17.062 0-30.894-13.832-30.894-30.894v-295.675c0-2.275 1.844-4.119 4.119-4.119h322.203c2.275 0 4.119 1.844 4.119 4.119v295.675c0 17.063-13.831 30.894-30.894 30.894z" fill="#f5f5f5"/><path d="m377.471 125.682h-30.882c2.274 0 4.118 1.845 4.118 4.121v295.662c0 17.069-13.826 30.905-30.882 30.905h30.882c17.056 0 30.882-13.837 30.882-30.905v-295.662c-.001-2.276-1.844-4.121-4.118-4.121z" fill="#e6e6e6"/><path d="m350.694 456.37h-268.653c-17.062 0-30.894-13.832-30.894-30.894v-194.394h330.441v194.395c0 17.062-13.831 30.893-30.894 30.893z" fill="#ffd54f"/><path d="m350.706 231.082v194.383c0 17.069-13.826 30.905-30.882 30.905h30.882c17.056 0 30.882-13.837 30.882-30.905v-194.383z" fill="#ffb300"/><g fill="#e6e6e6"><path d="m117.029 150.922c-8.528 0-15.441 6.919-15.441 15.453v249.304c0 8.534 6.913 15.453 15.441 15.453s15.441-6.919 15.441-15.453v-249.305c.001-8.534-6.913-15.452-15.441-15.452z"/><path d="m181.368 150.922c-8.528 0-15.441 6.919-15.441 15.453v249.304c0 8.534 6.913 15.453 15.441 15.453s15.441-6.919 15.441-15.453v-249.305c0-8.534-6.914-15.452-15.441-15.452z"/><path d="m245.706 150.922c-8.528 0-15.441 6.919-15.441 15.453v249.304c0 8.534 6.913 15.453 15.441 15.453s15.441-6.919 15.441-15.453v-249.305c0-8.534-6.913-15.452-15.441-15.452z"/><path d="m310.044 150.922c-8.528 0-15.441 6.919-15.441 15.453v249.304c0 8.534 6.913 15.453 15.441 15.453s15.441-6.919 15.441-15.453v-249.305c0-8.534-6.913-15.452-15.441-15.452z"/></g><path d="m101.588 231.082v184.596c0 8.534 6.913 15.453 15.441 15.453s15.441-6.919 15.441-15.453v-184.596z" fill="#ffb300"/><path d="m165.926 231.082v184.596c0 8.534 6.913 15.453 15.441 15.453s15.441-6.919 15.441-15.453v-184.596z" fill="#ffb300"/><path d="m230.265 231.082v184.596c0 8.534 6.913 15.453 15.441 15.453s15.441-6.919 15.441-15.453v-184.596z" fill="#ffb300"/><path d="m294.603 231.082v184.596c0 8.534 6.913 15.453 15.441 15.453s15.441-6.919 15.441-15.453v-184.596z" fill="#ffb300"/><path d="m156.966 57.929c-7.603-3.312-16.039-3.464-23.757-.425-7.715 3.037-13.787 8.899-17.096 16.505-1.652 3.798.087 8.217 3.885 9.87 3.806 1.655 8.22-.095 9.87-3.885 1.711-3.933 4.849-6.963 8.836-8.533s8.345-1.491 12.271.22c3.799 1.654 8.217-.083 9.872-3.88 1.653-3.798-.084-8.217-3.881-9.872z" fill="#f5f5f5"/><path d="m295.78 74.108c-3.084-8.622-9.339-15.525-17.611-19.439-8.275-3.915-17.577-4.371-26.195-1.283-3.899 1.397-5.928 5.691-4.531 9.59s5.69 5.927 9.59 4.531c4.843-1.735 10.068-1.479 14.721.721 4.651 2.201 8.169 6.083 9.903 10.932 1.393 3.895 5.68 5.933 9.588 4.536 3.9-1.395 5.931-5.688 4.535-9.588z" fill="#f5f5f5"/></svg>